<svg xmlns="http://www.w3.org/2000/svg" id="Capa_1" data-name="Capa 1" viewBox="0 0 198.19 49.02"><defs><style>      .cls-1 {        fill: #e8a41b;      }      .cls-1, .cls-2 {        stroke-width: 0px;      }      .cls-2 {        fill: #1f3c86;      }    </style></defs><path class="cls-2" d="m0,0v43.12C0,46.36,2.47,49.02,5.49,49.02h38.05c3.02,0,5.49-2.66,5.49-5.9V0H0Zm17.08,44.42h-2.63c-.96,0-1.1-.75-1.1-.75l-2.27-9.38s-.28-2.47-2.83-4.02l-5.78-3.42v-4.77l9.02,5.36c3.13,1.46,3.55,5.13,3.55,5.13l2.47,10.45c.48,1.66-.43,1.39-.43,1.39Zm5.82,0h-2.35c-1.34,0-1.54-.99-1.54-.99l-3.05-12.29c.26,1.07-.73-3.48-3.07-4.62l-10.4-5.8v-5.6l12.6,7.52c4.58,2.1,4.96,6.25,4.96,6.25l3.45,13.71c.67,2.18-.6,1.83-.6,1.83Zm6.03,0h-1.74c-1.74,0-2-1.22-2-1.22l-4.12-15.23s-.5-4.02-5.12-6.52L2.47,13.78v-5.66l16.34,9.31c5.5,2.67,6.43,7.74,6.43,7.74l4.48,16.98c.86,2.7-.79,2.26-.79,2.26Zm17.55-30.63v.26l-15.14,7.22.35,1.48,14.8-7.13v4.26l-13.67,6.7.5,1.86,13.17-6.99v4.09l-11.87,6.41.56,1.95,11.31-5.92v4.27l-10.1,5.74s.52,1.49,1.4,4.18c.87,2.7-.79,2.26-.79,2.26h-2.31c-1.74,0-2-1.22-2-1.22l-6.34-19.89s-2.75-8.3-4.05-10.48c-1.31-2.18-8.7-.87-8.7-.87,4.7-5.22,12.18-8.18,12.18-8.18l4.35,13.84,16.36-7.75v3.92Z"></path><g><path class="cls-2" d="m73.02,5.22h-2.88v-.97h6.92v.97h-2.88v7.68h-1.15v-7.68Z"></path><path class="cls-2" d="m81.97,10.91c-.28,1.38-1.27,2.13-2.68,2.13-2,0-2.94-1.38-3-3.3,0-1.88,1.24-3.26,2.94-3.26,2.22,0,2.9,2.07,2.83,3.59h-4.69c-.04,1.09.58,2.06,1.95,2.06.85,0,1.44-.41,1.62-1.22h1.02Zm-.99-1.74c-.05-.98-.79-1.77-1.81-1.77-1.08,0-1.72.81-1.79,1.77h3.6Z"></path><path class="cls-2" d="m87.51,8.65c-.16-.79-.7-1.25-1.55-1.25-1.49,0-1.95,1.18-1.95,2.45,0,1.15.52,2.29,1.83,2.29.99,0,1.59-.58,1.72-1.53h1.05c-.23,1.53-1.19,2.44-2.76,2.44-1.91,0-2.93-1.33-2.93-3.2s.97-3.36,2.96-3.36c1.42,0,2.56.67,2.7,2.16h-1.07Z"></path><path class="cls-2" d="m89.88,6.64h.97v.99h.02c.44-.78,1.14-1.14,2.04-1.14,1.65,0,2.16.95,2.16,2.29v4.12h-1.03v-4.24c0-.76-.48-1.26-1.27-1.26-1.25,0-1.85.84-1.85,1.96v3.54h-1.03v-6.26Z"></path><path class="cls-2" d="m99.45,6.49c1.99,0,3.04,1.44,3.04,3.28s-1.05,3.27-3.04,3.27-3.04-1.44-3.04-3.27,1.05-3.28,3.04-3.28Zm0,5.65c1.08,0,1.95-.85,1.95-2.36s-.87-2.37-1.95-2.37-1.95.85-1.95,2.37.87,2.36,1.95,2.36Z"></path><path class="cls-2" d="m103.88,4.25h1.03v8.65h-1.03V4.25Z"></path><path class="cls-2" d="m109.34,6.49c1.99,0,3.04,1.44,3.04,3.28s-1.05,3.27-3.04,3.27-3.04-1.44-3.04-3.27,1.05-3.28,3.04-3.28Zm0,5.65c1.08,0,1.95-.85,1.95-2.36s-.87-2.37-1.95-2.37-1.95.85-1.95,2.37.87,2.36,1.95,2.36Zm.3-8.09h1.32l-1.59,1.73h-.78l1.04-1.73Z"></path><path class="cls-2" d="m119.12,12.37c0,2.04-.93,3.08-2.91,3.08-1.18,0-2.53-.47-2.59-1.84h1.03c.05.75.95,1.02,1.62,1.02,1.34,0,1.88-.97,1.88-2.37v-.41h-.02c-.34.76-1.16,1.14-1.95,1.14-1.87,0-2.8-1.47-2.8-3.17,0-1.48.73-3.31,2.9-3.31.79,0,1.49.35,1.87,1.04h.01v-.9h.97v5.73Zm-1.02-2.73c0-1.1-.48-2.24-1.78-2.24s-1.85,1.08-1.85,2.28c0,1.13.41,2.39,1.77,2.39s1.87-1.25,1.87-2.42Z"></path><path class="cls-2" d="m121.88,5.51h-1.03v-1.26h1.03v1.26Zm-1.03,1.13h1.03v6.26h-1.03v-6.26Z"></path><path class="cls-2" d="m127.86,8.65c-.16-.79-.7-1.25-1.55-1.25-1.49,0-1.95,1.18-1.95,2.45,0,1.15.52,2.29,1.83,2.29.99,0,1.59-.58,1.72-1.53h1.05c-.23,1.53-1.19,2.44-2.76,2.44-1.91,0-2.93-1.33-2.93-3.2s.97-3.36,2.96-3.36c1.42,0,2.56.67,2.7,2.16h-1.07Z"></path><path class="cls-2" d="m132.94,6.49c1.99,0,3.04,1.44,3.04,3.28s-1.05,3.27-3.04,3.27-3.04-1.44-3.04-3.27,1.05-3.28,3.04-3.28Zm0,5.65c1.08,0,1.95-.85,1.95-2.36s-.87-2.37-1.95-2.37-1.95.85-1.95,2.37.87,2.36,1.95,2.36Z"></path></g><g><path class="cls-2" d="m79.91,22.92c0,3.09-1.83,4.6-4.89,4.6s-4.87-1.49-4.87-4.6v-7.11h2.52v7.11c0,1.25.32,2.48,2.36,2.48,1.79,0,2.37-.79,2.37-2.48v-7.11h2.52v7.11Z"></path><path class="cls-2" d="m81.99,18.96h2.16v1.15h.05c.58-.93,1.57-1.38,2.53-1.38,2.42,0,3.03,1.36,3.03,3.41v5.09h-2.27v-4.68c0-1.36-.4-2.03-1.46-2.03-1.23,0-1.76.69-1.76,2.37v4.34h-2.27v-8.28Z"></path><path class="cls-2" d="m93.99,17.68h-2.27v-1.87h2.27v1.87Zm-2.27,1.28h2.27v8.28h-2.27v-8.28Z"></path><path class="cls-2" d="m100.53,27.25h-2.53l-2.84-8.28h2.39l1.75,5.66h.03l1.75-5.66h2.26l-2.8,8.28Z"></path><path class="cls-2" d="m106.31,23.66c.06,1.44.77,2.1,2.04,2.1.91,0,1.65-.56,1.79-1.07h2c-.64,1.96-2,2.79-3.88,2.79-2.61,0-4.23-1.79-4.23-4.36s1.71-4.37,4.23-4.37c2.82,0,4.18,2.37,4.02,4.92h-5.98Zm3.7-1.44c-.21-1.15-.71-1.76-1.81-1.76-1.44,0-1.86,1.12-1.89,1.76h3.7Z"></path><path class="cls-2" d="m113.79,18.96h2.16v1.54h.03c.42-1.04,1.54-1.76,2.64-1.76.16,0,.35.03.5.08v2.11c-.21-.05-.54-.08-.82-.08-1.67,0-2.24,1.2-2.24,2.66v3.73h-2.28v-8.28Z"></path><path class="cls-2" d="m121.94,24.56c.02.99.85,1.39,1.75,1.39.66,0,1.49-.26,1.49-1.06,0-.69-.95-.93-2.58-1.28-1.31-.29-2.63-.75-2.63-2.21,0-2.11,1.83-2.66,3.6-2.66s3.48.61,3.65,2.64h-2.16c-.06-.88-.74-1.12-1.55-1.12-.51,0-1.27.1-1.27.77,0,.82,1.28.93,2.58,1.23,1.33.3,2.63.79,2.63,2.32,0,2.18-1.89,2.88-3.78,2.88s-3.8-.72-3.89-2.92h2.16Z"></path><path class="cls-2" d="m131.28,17.68h-2.27v-1.87h2.27v1.87Zm-2.27,1.28h2.27v8.28h-2.27v-8.28Z"></path><path class="cls-2" d="m136.11,18.96h1.67v1.52h-1.67v4.1c0,.77.19.96.96.96.24,0,.46-.02.71-.06v1.78c-.38.06-.88.08-1.33.08-1.39,0-2.61-.32-2.61-1.97v-4.89h-1.38v-1.52h1.38v-2.48h2.28v2.48Z"></path><path class="cls-2" d="m138.93,21.51c.13-2.13,2.03-2.77,3.89-2.77,1.65,0,3.64.37,3.64,2.35v4.31c0,.75.08,1.51.29,1.84h-2.31c-.08-.26-.14-.53-.16-.8-.72.75-1.78,1.03-2.79,1.03-1.57,0-2.82-.79-2.82-2.48,0-1.87,1.41-2.32,2.82-2.52,1.39-.21,2.69-.16,2.69-1.09,0-.98-.67-1.12-1.47-1.12-.87,0-1.43.35-1.51,1.25h-2.27Zm5.25,1.68c-.38.34-1.19.35-1.89.48-.71.14-1.35.38-1.35,1.22s.66,1.06,1.39,1.06c1.78,0,1.84-1.41,1.84-1.91v-.85Z"></path><path class="cls-2" d="m148.38,18.96h2.16v1.54h.03c.42-1.04,1.54-1.76,2.64-1.76.16,0,.35.03.5.08v2.11c-.21-.05-.54-.08-.82-.08-1.67,0-2.24,1.2-2.24,2.66v3.73h-2.28v-8.28Z"></path><path class="cls-2" d="m157.11,17.68h-2.27v-1.87h2.27v1.87Zm-2.27,1.28h2.27v8.28h-2.27v-8.28Z"></path><path class="cls-2" d="m163.09,18.74c2.61,0,4.29,1.73,4.29,4.37s-1.68,4.36-4.29,4.36-4.28-1.73-4.28-4.36,1.68-4.37,4.28-4.37Zm0,7.02c1.55,0,2.02-1.33,2.02-2.64s-.46-2.66-2.02-2.66-2,1.33-2,2.66.46,2.64,2,2.64Z"></path></g><rect class="cls-1" x="58.34" y=".2" width="1.05" height="48.52"></rect><path class="cls-2" d="m73.3,37.93h8v-2.24h-8v-3.09h8.65v-2.24h-11.95v13.65h12.26v-2.34h-8.96v-3.74Zm23.05-6.08c-.64-.64-1.4-1.07-2.35-1.28-.64-.1-1.39-.21-2.35-.21h-6.62v13.65h6.62c.96,0,1.71-.11,2.35-.31.95-.22,1.71-.66,2.23-1.07.76-.63,1.29-1.39,1.71-2.46.32-.75.54-1.71.54-2.88,0-1.28-.22-2.35-.54-3.2-.32-.97-.85-1.7-1.59-2.24Zm-1.61,7.79c-.21.64-.42,1.07-.85,1.39-.32.21-.75.42-1.28.52-.21.12-.53.12-.96.12h-3.41v-9.07h1.49c.74,0,1.49,0,1.92.1h.75c.53.22,1.06.42,1.49.75.32.32.64.75.85,1.28.21.54.32,1.4.32,2.45s-.11,1.92-.32,2.46Zm16-1.7c0,1.06,0,1.81-.11,2.23-.11.54-.42.97-.86,1.28-.53.32-1.18.43-2.14.43-.84,0-1.6-.21-2.14-.53-.53-.32-.84-.75-.95-1.28-.11-.43-.11-1.18-.11-2.35v-7.36h-3.31v7.25c0,1.49.1,2.66.32,3.52.22.54.53.96.96,1.49.43.42,1.07.85,1.81,1.17.85.32,2.03.42,3.52.42,1.28,0,2.35-.1,3.09-.42.86-.21,1.39-.64,1.92-1.07.42-.53.75-1.06.96-1.7.21-.76.21-1.93.21-3.53v-7.15h-3.19v7.58Zm15.67-7.47c-.42-.11-1.49-.11-2.88-.11h-6.18v13.65h3.3v-5.12h2.88c1.06-.1,1.92-.1,2.56-.21.64-.11,1.18-.32,1.7-.65.54-.31.97-.85,1.39-1.38.32-.53.53-1.28.53-2.13,0-1.07-.32-2.03-.95-2.67-.65-.64-1.39-1.17-2.35-1.38Zm-.42,5.12c-.22.32-.53.54-.96.75-.32.12-.85.12-1.49.22h-2.88v-3.94h2.88c.42.1.75.1.95.1.54.11.97.32,1.39.64.33.32.54.75.54,1.18s-.2.85-.42,1.06Zm17.06,3.52c-.54-.42-1.06-.74-1.81-1.17,1.49-.11,2.45-.54,3.2-1.28.74-.64,1.07-1.49,1.07-2.45,0-.86-.21-1.6-.64-2.25-.53-.64-1.17-1.06-1.91-1.28-.75-.21-2.03-.32-3.74-.32h-6.82v13.65h3.2v-5.76h.64c.74,0,1.38.11,1.7.21.31.1.64.33.96.53.32.32.86.97,1.71,2.03l2.35,2.98h3.84l-1.93-2.67c-.75-1.07-1.38-1.81-1.81-2.25Zm-4.16-2.98h-3.3v-3.52h3.3c.86,0,1.39,0,1.61.1.53,0,.96.22,1.28.53.21.22.43.64.43,1.07s-.11.75-.32,1.06c-.21.22-.53.43-.96.53-.32.11-.97.22-2.03.22Zm14.3-5.76l-6.3,13.65h3.51l1.27-3.1h6.41l1.39,3.1h3.63l-6.5-13.65h-3.41Zm-.54,8.21l2.24-5.01,2.25,5.01h-4.48Zm24.95-8.21h-3.74l-3.19,4.37-3.2-4.37h-3.84l5.01,6.51-5.54,7.15h3.94l3.51-4.7,3.63,4.7h3.84l-5.43-7.04,5.01-6.62Zm2.03,13.65h3.2v-13.65h-3.2v13.65Zm17.92-6.19c-.43-.53-.96-1.06-1.7-1.37-.86-.32-1.92-.65-3.52-.97-1.6-.32-2.55-.64-2.99-.96-.33-.21-.53-.54-.53-.86s.2-.64.53-.85c.53-.32,1.28-.42,2.24-.42.85,0,1.6.1,2.03.42.42.32.74.85.85,1.5l3.31-.11c-.11-1.28-.65-2.25-1.6-2.99-1.07-.74-2.56-1.17-4.59-1.17-1.18,0-2.24.22-3.1.53-.96.33-1.6.75-2.03,1.39-.53.65-.74,1.28-.74,1.92,0,1.06.53,2.02,1.5,2.77.75.53,1.92.96,3.62,1.38,1.39.22,2.24.43,2.67.53.53.23.96.43,1.17.64.21.22.32.54.32.86,0,.42-.32.96-.84,1.28-.53.43-1.28.53-2.35.53-.96,0-1.71-.21-2.34-.64-.53-.32-.97-1.07-1.18-1.92l-3.09.22c.21,1.6.86,2.77,1.92,3.51,1.07.86,2.67,1.18,4.69,1.18,1.39,0,2.56-.1,3.53-.42.85-.32,1.59-.86,2.12-1.6.54-.64.74-1.39.74-2.13,0-.86-.21-1.6-.64-2.25Z"></path></svg>